<mxfile host="app.diagrams.net" modified="2020-12-26T16:53:58.734Z" agent="5.0 (Windows NT 10.0; WOW64) AppleWebKit/537.36 (KHTML, like Gecko) Chrome/86.0.4240.193 Safari/537.36" etag="wUscFCLsKFxlmmCA05mi" version="14.1.2" type="github">
  <diagram id="uDJWOoL0lcbTGfVm42-E" name="第 1 页">
    <mxGraphModel dx="757" dy="681" grid="1" gridSize="10" guides="1" tooltips="1" connect="1" arrows="1" fold="1" page="1" pageScale="1" pageWidth="2336" pageHeight="1654" math="0" shadow="0">
      <root>
        <mxCell id="0" />
        <mxCell id="1" parent="0" />
        <mxCell id="CDJCGj65mlWLLFupXMsn-8" style="edgeStyle=orthogonalEdgeStyle;rounded=0;orthogonalLoop=1;jettySize=auto;html=1;" edge="1" parent="1" source="CDJCGj65mlWLLFupXMsn-1" target="CDJCGj65mlWLLFupXMsn-2">
          <mxGeometry relative="1" as="geometry" />
        </mxCell>
        <mxCell id="CDJCGj65mlWLLFupXMsn-1" value="case&amp;nbsp;&lt;span lang=&quot;EN-US&quot; style=&quot;font-size: 10.5pt ; font-family: &amp;#34;times new roman&amp;#34; , serif&quot;&gt;FUNC_CALL&lt;/span&gt;" style="rounded=0;whiteSpace=wrap;html=1;" vertex="1" parent="1">
          <mxGeometry x="330" y="320" width="120" height="50" as="geometry" />
        </mxCell>
        <mxCell id="CDJCGj65mlWLLFupXMsn-9" style="edgeStyle=orthogonalEdgeStyle;rounded=0;orthogonalLoop=1;jettySize=auto;html=1;entryX=0.5;entryY=0;entryDx=0;entryDy=0;" edge="1" parent="1" source="CDJCGj65mlWLLFupXMsn-2" target="CDJCGj65mlWLLFupXMsn-3">
          <mxGeometry relative="1" as="geometry" />
        </mxCell>
        <mxCell id="CDJCGj65mlWLLFupXMsn-2" value="j = 0" style="whiteSpace=wrap;html=1;" vertex="1" parent="1">
          <mxGeometry x="365" y="400" width="50" height="30" as="geometry" />
        </mxCell>
        <mxCell id="CDJCGj65mlWLLFupXMsn-10" style="edgeStyle=orthogonalEdgeStyle;rounded=0;orthogonalLoop=1;jettySize=auto;html=1;entryX=0.5;entryY=0;entryDx=0;entryDy=0;" edge="1" parent="1" source="CDJCGj65mlWLLFupXMsn-3" target="CDJCGj65mlWLLFupXMsn-7">
          <mxGeometry relative="1" as="geometry" />
        </mxCell>
        <mxCell id="CDJCGj65mlWLLFupXMsn-17" style="edgeStyle=orthogonalEdgeStyle;rounded=0;orthogonalLoop=1;jettySize=auto;html=1;" edge="1" parent="1" source="CDJCGj65mlWLLFupXMsn-3" target="CDJCGj65mlWLLFupXMsn-16">
          <mxGeometry relative="1" as="geometry" />
        </mxCell>
        <mxCell id="CDJCGj65mlWLLFupXMsn-3" value="symbolTable.symbols[j].level==0&amp;amp;&amp;amp;&lt;br&gt;j&amp;lt;symbolTable.index" style="rhombus;whiteSpace=wrap;html=1;" vertex="1" parent="1">
          <mxGeometry x="255" y="460" width="270" height="70" as="geometry" />
        </mxCell>
        <mxCell id="CDJCGj65mlWLLFupXMsn-4" value="遍历第0层的符号表" style="text;html=1;align=center;verticalAlign=middle;resizable=0;points=[];autosize=1;" vertex="1" parent="1">
          <mxGeometry x="240" y="450" width="120" height="20" as="geometry" />
        </mxCell>
        <mxCell id="CDJCGj65mlWLLFupXMsn-15" style="edgeStyle=orthogonalEdgeStyle;rounded=0;orthogonalLoop=1;jettySize=auto;html=1;" edge="1" parent="1" source="CDJCGj65mlWLLFupXMsn-5" target="CDJCGj65mlWLLFupXMsn-3">
          <mxGeometry relative="1" as="geometry" />
        </mxCell>
        <mxCell id="CDJCGj65mlWLLFupXMsn-5" value="j++" style="whiteSpace=wrap;html=1;" vertex="1" parent="1">
          <mxGeometry x="180" y="480" width="50" height="30" as="geometry" />
        </mxCell>
        <mxCell id="CDJCGj65mlWLLFupXMsn-12" style="edgeStyle=orthogonalEdgeStyle;rounded=0;orthogonalLoop=1;jettySize=auto;html=1;" edge="1" parent="1" source="CDJCGj65mlWLLFupXMsn-7" target="CDJCGj65mlWLLFupXMsn-5">
          <mxGeometry relative="1" as="geometry" />
        </mxCell>
        <mxCell id="CDJCGj65mlWLLFupXMsn-19" style="edgeStyle=orthogonalEdgeStyle;rounded=0;orthogonalLoop=1;jettySize=auto;html=1;" edge="1" parent="1" source="CDJCGj65mlWLLFupXMsn-7" target="CDJCGj65mlWLLFupXMsn-18">
          <mxGeometry relative="1" as="geometry" />
        </mxCell>
        <mxCell id="CDJCGj65mlWLLFupXMsn-7" value="函数名是否相同?" style="rhombus;whiteSpace=wrap;html=1;" vertex="1" parent="1">
          <mxGeometry x="315" y="560" width="150" height="50" as="geometry" />
        </mxCell>
        <mxCell id="CDJCGj65mlWLLFupXMsn-11" value="Y" style="text;html=1;align=center;verticalAlign=middle;resizable=0;points=[];autosize=1;" vertex="1" parent="1">
          <mxGeometry x="360" y="530" width="20" height="20" as="geometry" />
        </mxCell>
        <mxCell id="CDJCGj65mlWLLFupXMsn-13" value="N" style="text;html=1;align=center;verticalAlign=middle;resizable=0;points=[];autosize=1;" vertex="1" parent="1">
          <mxGeometry x="290" y="560" width="20" height="20" as="geometry" />
        </mxCell>
        <mxCell id="CDJCGj65mlWLLFupXMsn-27" style="edgeStyle=orthogonalEdgeStyle;rounded=0;orthogonalLoop=1;jettySize=auto;html=1;" edge="1" parent="1" source="CDJCGj65mlWLLFupXMsn-16" target="CDJCGj65mlWLLFupXMsn-23">
          <mxGeometry relative="1" as="geometry">
            <Array as="points">
              <mxPoint x="585" y="805" />
            </Array>
          </mxGeometry>
        </mxCell>
        <mxCell id="CDJCGj65mlWLLFupXMsn-16" value="函数未定义" style="whiteSpace=wrap;html=1;" vertex="1" parent="1">
          <mxGeometry x="540" y="567.5" width="90" height="35" as="geometry" />
        </mxCell>
        <mxCell id="CDJCGj65mlWLLFupXMsn-22" style="edgeStyle=orthogonalEdgeStyle;rounded=0;orthogonalLoop=1;jettySize=auto;html=1;" edge="1" parent="1" source="CDJCGj65mlWLLFupXMsn-18" target="CDJCGj65mlWLLFupXMsn-21">
          <mxGeometry relative="1" as="geometry" />
        </mxCell>
        <mxCell id="CDJCGj65mlWLLFupXMsn-26" style="edgeStyle=orthogonalEdgeStyle;rounded=0;orthogonalLoop=1;jettySize=auto;html=1;" edge="1" parent="1" source="CDJCGj65mlWLLFupXMsn-18" target="CDJCGj65mlWLLFupXMsn-23">
          <mxGeometry relative="1" as="geometry">
            <Array as="points">
              <mxPoint x="240" y="665" />
              <mxPoint x="240" y="805" />
            </Array>
          </mxGeometry>
        </mxCell>
        <mxCell id="CDJCGj65mlWLLFupXMsn-18" value="与符号表中函数参数个数是否相同?" style="rhombus;whiteSpace=wrap;html=1;" vertex="1" parent="1">
          <mxGeometry x="260" y="640" width="260" height="50" as="geometry" />
        </mxCell>
        <mxCell id="CDJCGj65mlWLLFupXMsn-20" value="Y" style="text;html=1;align=center;verticalAlign=middle;resizable=0;points=[];autosize=1;" vertex="1" parent="1">
          <mxGeometry x="360" y="610" width="20" height="20" as="geometry" />
        </mxCell>
        <mxCell id="CDJCGj65mlWLLFupXMsn-24" style="edgeStyle=orthogonalEdgeStyle;rounded=0;orthogonalLoop=1;jettySize=auto;html=1;entryX=0.5;entryY=0;entryDx=0;entryDy=0;" edge="1" parent="1" source="CDJCGj65mlWLLFupXMsn-21" target="CDJCGj65mlWLLFupXMsn-23">
          <mxGeometry relative="1" as="geometry" />
        </mxCell>
        <mxCell id="CDJCGj65mlWLLFupXMsn-21" value="函数调用参数个数不匹配" style="whiteSpace=wrap;html=1;" vertex="1" parent="1">
          <mxGeometry x="315" y="720" width="150" height="40" as="geometry" />
        </mxCell>
        <mxCell id="CDJCGj65mlWLLFupXMsn-23" value="return type" style="whiteSpace=wrap;html=1;" vertex="1" parent="1">
          <mxGeometry x="350" y="790" width="80" height="30" as="geometry" />
        </mxCell>
        <mxCell id="CDJCGj65mlWLLFupXMsn-25" value="Y" style="text;html=1;align=center;verticalAlign=middle;resizable=0;points=[];autosize=1;" vertex="1" parent="1">
          <mxGeometry x="360" y="690" width="20" height="20" as="geometry" />
        </mxCell>
      </root>
    </mxGraphModel>
  </diagram>
</mxfile>
